<svg xmlns="http://www.w3.org/2000/svg" width="16" height="14" viewBox="0 0 16 14" fill="none">
  <path d="M14 0.5H2C1.46974 0.500587 0.961363 0.718672 0.586413 1.1064C0.211463 1.49414 0.000567223 2.01985 0 2.56818V11.4318C0.000567223 11.9802 0.211463 12.5059 0.586413 12.8936C0.961363 13.2813 1.46974 13.4994 2 13.5H14C14.5303 13.4994 15.0386 13.2813 15.4136 12.8936C15.7885 12.5059 15.9994 11.9802 16 11.4318V2.56818C15.9994 2.01985 15.7885 1.49414 15.4136 1.1064C15.0386 0.718672 14.5303 0.500587 14 0.5ZM13.4936 3.92099L8.35071 8.05736C8.25043 8.13798 8.12703 8.18174 8 8.18174C7.87298 8.18174 7.74957 8.13798 7.64929 8.05736L2.50643 3.92099C2.446 3.87381 2.39525 3.81467 2.35712 3.74703C2.31899 3.67938 2.29424 3.60458 2.2843 3.52695C2.27437 3.44933 2.27946 3.37044 2.29926 3.29487C2.31907 3.2193 2.3532 3.14855 2.39968 3.08673C2.44615 3.02492 2.50405 2.97328 2.56999 2.9348C2.63594 2.89632 2.70862 2.87178 2.78382 2.8626C2.85901 2.85343 2.93522 2.8598 3.00802 2.88134C3.08081 2.90288 3.14874 2.93917 3.20786 2.9881L8 6.8423L12.7921 2.9881C12.912 2.89452 13.0626 2.85348 13.2115 2.87385C13.3603 2.89422 13.4955 2.97436 13.5876 3.09694C13.6798 3.21953 13.7216 3.3747 13.704 3.52891C13.6864 3.68312 13.6108 3.82397 13.4936 3.92099Z" fill="#94A3B8"/>
</svg>