<svg xmlns="http://www.w3.org/2000/svg" width="16" height="16" viewBox="0 0 16 16" fill="none">
  <path d="M6.54231 4.58346C6.54231 5.08346 6.54231 5.56808 6.7 6.02192C5.04231 7.96808 0.665385 13.1104 0.257692 13.5027C0.176665 13.5754 0.111845 13.6643 0.0674477 13.7637C0.0230505 13.8631 6.97938e-05 13.9708 0 14.0796C0 14.4065 0.2 14.7219 0.369231 14.8988C0.623077 15.1642 1.70769 16.1681 1.90769 15.9758C2.5 15.3988 2.61923 15.245 2.86154 15.0065C3.22692 14.6488 2.82308 13.9181 2.95 13.6219C3.07692 13.3258 3.21154 13.2681 3.43077 13.2219C3.65 13.1758 4.03846 13.3335 4.34231 13.3373C4.66154 13.3412 4.83462 13.2065 5.07308 12.9835C5.26538 12.8065 5.40385 12.6412 5.40769 12.3835C5.41539 12.0373 4.91538 11.5796 5.28846 11.2142C5.66154 10.8488 6.2 11.4527 6.59615 11.4065C6.99231 11.3604 7.47308 10.8104 7.52308 10.5758C7.57308 10.3412 7.07308 9.73731 7.15 9.395C7.17692 9.27961 7.41154 9.01038 7.58846 8.97192C7.76539 8.93346 8.55 9.23731 8.72692 9.19885C8.94231 9.15269 9.19231 8.92577 9.39615 8.79885C9.99231 9.05654 10.5346 9.16038 11.2308 9.16038C13.8654 9.16038 16 7.10654 16 4.57577C16 2.045 13.8654 0 11.2308 0C8.59615 0 6.54231 2.05269 6.54231 4.58346ZM13.5385 3.69231C13.5385 3.93573 13.4663 4.17369 13.331 4.37609C13.1958 4.57848 13.0036 4.73624 12.7787 4.82939C12.5538 4.92254 12.3063 4.94692 12.0676 4.89943C11.8288 4.85194 11.6095 4.73472 11.4374 4.56259C11.2653 4.39047 11.1481 4.17116 11.1006 3.93242C11.0531 3.69367 11.0775 3.44621 11.1706 3.22131C11.2638 2.99642 11.4215 2.8042 11.6239 2.66896C11.8263 2.53372 12.0643 2.46154 12.3077 2.46154C12.6341 2.46154 12.9472 2.59121 13.178 2.82202C13.4088 3.05284 13.5385 3.36589 13.5385 3.69231Z" fill="#F43F5E"/>
</svg>