<svg xmlns="http://www.w3.org/2000/svg" width="16" height="16" viewBox="0 0 16 16" fill="none">
  <path d="M6.54231 4.58342C6.54231 5.08342 6.54231 5.56804 6.7 6.02188C5.04231 7.96804 0.665385 13.1103 0.257692 13.5027C0.176665 13.5754 0.111845 13.6643 0.0674477 13.7637C0.0230505 13.8631 6.97938e-05 13.9707 0 14.0796C0 14.4065 0.2 14.7219 0.369231 14.8988C0.623077 15.1642 1.70769 16.168 1.90769 15.9757C2.5 15.3988 2.61923 15.245 2.86154 15.0065C3.22692 14.6488 2.82308 13.918 2.95 13.6219C3.07692 13.3257 3.21154 13.268 3.43077 13.2219C3.65 13.1757 4.03846 13.3334 4.34231 13.3373C4.66154 13.3411 4.83462 13.2065 5.07308 12.9834C5.26538 12.8065 5.40385 12.6411 5.40769 12.3834C5.41539 12.0373 4.91538 11.5796 5.28846 11.2142C5.66154 10.8488 6.2 11.4527 6.59615 11.4065C6.99231 11.3603 7.47308 10.8103 7.52308 10.5757C7.57308 10.3411 7.07308 9.73727 7.15 9.39496C7.17692 9.27958 7.41154 9.01035 7.58846 8.97188C7.76539 8.93342 8.55 9.23727 8.72692 9.19881C8.94231 9.15265 9.19231 8.92573 9.39615 8.79881C9.99231 9.0565 10.5346 9.16035 11.2308 9.16035C13.8654 9.16035 16 7.1065 16 4.57573C16 2.04496 13.8654 -3.8147e-05 11.2308 -3.8147e-05C8.59615 -3.8147e-05 6.54231 2.05265 6.54231 4.58342ZM13.5385 3.69227C13.5385 3.93569 13.4663 4.17365 13.331 4.37605C13.1958 4.57845 13.0036 4.7362 12.7787 4.82935C12.5538 4.92251 12.3063 4.94688 12.0676 4.89939C11.8288 4.8519 11.6095 4.73468 11.4374 4.56255C11.2653 4.39043 11.1481 4.17113 11.1006 3.93238C11.0531 3.69363 11.0775 3.44617 11.1706 3.22127C11.2638 2.99638 11.4215 2.80416 11.6239 2.66892C11.8263 2.53368 12.0643 2.4615 12.3077 2.4615C12.6341 2.4615 12.9472 2.59117 13.178 2.82198C13.4088 3.0528 13.5385 3.36585 13.5385 3.69227Z" fill="#94A3B8"/>
</svg>