<svg xmlns="http://www.w3.org/2000/svg" width="24" height="24" viewBox="0 0 24 24" fill="none">
  <path d="M22.2 12C23.1941 12 24.0138 12.8104 23.8653 13.7933C23.5793 15.6856 22.8433 17.4911 21.7082 19.0534C20.2187 21.1036 18.1183 22.6296 15.7082 23.4127C13.2981 24.1958 10.7019 24.1958 8.2918 23.4127C5.88167 22.6296 3.78133 21.1036 2.2918 19.0534C0.802259 17.0033 -2.21542e-07 14.5342 0 12C2.21543e-07 9.46585 0.80226 6.99675 2.2918 4.94658C3.78133 2.8964 5.88168 1.37042 8.2918 0.587321C10.1284 -0.00942369 12.073 -0.151429 13.961 0.161306C14.9418 0.32376 15.4592 1.35377 15.152 2.29922V2.29922C14.8448 3.24468 13.8267 3.74096 12.8375 3.64185C11.6863 3.5265 10.5169 3.64959 9.40426 4.01113C7.71717 4.55929 6.24693 5.62748 5.20426 7.0626C4.16158 8.49772 3.6 10.2261 3.6 12C3.6 13.7739 4.16158 15.5023 5.20426 16.9374C6.24693 18.3725 7.71717 19.4407 9.40426 19.9889C11.0913 20.537 12.9087 20.537 14.5957 19.9889C16.2828 19.4407 17.7531 18.3725 18.7957 16.9374C19.4834 15.9909 19.9618 14.9168 20.2079 13.7863C20.4193 12.8149 21.2059 12 22.2 12V12Z" fill="#F43F5E"/>
</svg>